<?xml version="1.0" standalone="no"?>
<!DOCTYPE svg PUBLIC "-//W3C//DTD SVG 20010904//EN"
 "http://www.w3.org/TR/2001/REC-SVG-20010904/DTD/svg10.dtd">
<svg version="1.0" xmlns="http://www.w3.org/2000/svg"
 width="500.000000pt" height="500.000000pt" viewBox="0 0 500.000000 500.000000"
 preserveAspectRatio="xMidYMid meet">

<g transform="translate(0.000000,500.000000) scale(0.100000,-0.100000)"
fill="#000000" stroke="none">
<path d="M0 2500 l0 -2500 2500 0 2500 0 0 2500 0 2500 -2500 0 -2500 0 0
-2500z m2580 960 c185 -35 330 -212 330 -403 0 -205 -146 -374 -353 -410 -172
-29 -348 66 -430 232 -30 62 -32 72 -32 176 0 104 2 114 32 176 85 172 267
264 453 229z m-540 -1050 c24 -24 24 -30 7 -54 -9 -12 -23 -17 -42 -14 -25 2
-31 8 -33 33 -3 19 2 33 14 42 24 17 30 17 54 -7z m-468 -208 l3 -132 -52 0
-51 0 10 36 c10 39 7 239 -5 265 -6 12 3 19 40 30 l48 15 2 -40 c2 -23 4 -101
5 -174z m1248 215 c0 -2 -17 -20 -39 -41 l-39 -38 5 29 c8 48 12 53 43 53 16
0 30 -1 30 -3z m760 -156 c0 -82 3 -156 6 -164 4 -12 -5 -17 -41 -22 -25 -4
-48 -5 -51 -2 -3 3 -6 52 -7 109 -2 103 -2 103 -27 103 -22 0 -26 -6 -34 -48
-12 -61 1 -118 32 -133 17 -9 20 -13 10 -21 -44 -34 -109 -15 -127 37 -35 103
26 201 117 186 l35 -5 -5 43 c-5 42 -4 44 26 54 69 22 66 28 66 -137z m-2165
127 c2 -7 6 -31 10 -53 l6 -40 -20 29 c-25 37 -57 55 -98 56 l-33 0 0 -70 c0
-68 1 -70 25 -70 14 0 37 11 50 25 l25 24 -1 -62 c0 -50 -2 -58 -11 -41 -10
22 -47 44 -73 44 -12 0 -15 -16 -15 -76 l0 -77 41 7 c55 9 76 21 101 59 18 29
19 29 14 7 -3 -14 -6 -37 -6 -52 l0 -28 -129 0 -130 0 10 29 c12 33 8 257 -5
284 -8 16 1 17 113 17 89 0 123 -3 126 -12z m434 -140 c2 19 48 62 66 62 11 0
15 -10 15 -35 0 -31 -3 -35 -25 -35 -55 0 -82 -73 -55 -144 9 -26 9 -26 -43
-26 l-53 0 4 83 c3 52 0 92 -7 105 -10 19 -7 22 36 34 l48 14 6 -36 c3 -19 7
-29 8 -22z m214 -165 c6 -10 -5 -13 -46 -13 l-53 0 4 83 c3 52 0 92 -7 105
-10 19 -7 22 36 34 l48 14 5 -106 c3 -58 9 -111 13 -117z m147 206 l0 -20 26
20 c34 26 68 27 94 1 16 -16 20 -33 20 -94 0 -41 4 -86 10 -100 9 -26 9 -26
-43 -26 l-52 0 0 93 c0 92 0 92 -25 92 -25 0 -25 0 -25 -93 l0 -92 -50 0 -50
0 0 105 0 105 40 14 c54 19 55 19 55 -5z m369 15 c29 -6 31 -10 31 -48 l0 -41
-18 28 c-55 82 -122 73 -122 -17 0 -73 65 -125 119 -96 25 13 27 3 6 -27 -21
-30 -75 -44 -121 -32 -96 27 -97 183 -1 224 36 16 60 18 106 9z m249 -14 c89
-54 72 -192 -26 -219 -110 -31 -200 77 -148 178 30 57 115 77 174 41z m219 0
c34 27 69 25 98 -5 22 -21 25 -33 25 -104 0 -44 3 -86 6 -95 5 -13 -3 -16 -47
-16 l-54 0 0 92 c0 93 0 93 -25 93 -24 0 -25 -3 -28 -64 -2 -35 1 -77 7 -92
l10 -29 -53 0 -52 0 4 83 c3 52 0 92 -7 105 -10 19 -7 22 36 34 44 13 48 13
51 -4 3 -17 5 -17 29 2z m752 5 c28 -14 41 -33 41 -61 0 -11 -17 -14 -76 -14
-73 0 -75 -1 -69 -22 8 -27 60 -78 80 -78 7 0 25 4 39 10 33 12 33 0 1 -32
-47 -48 -131 -41 -169 13 -21 31 -21 112 0 145 34 50 99 67 153 39z m-951
-323 c4 -24 -33 -53 -57 -44 -22 8 -31 22 -31 50 0 49 81 44 88 -6z m152 -126
c0 -85 3 -161 6 -170 5 -13 -3 -16 -47 -16 l-54 0 0 159 0 160 30 9 c68 22 65
28 65 -142z m-999 127 c6 -6 9 -29 7 -53 l-3 -42 -32 46 c-34 47 -65 63 -108
52 -54 -14 -78 -98 -50 -172 34 -89 137 -113 193 -45 11 14 12 13 6 -9 -17
-64 -95 -107 -167 -91 -72 17 -108 55 -122 132 -14 73 34 159 105 188 30 13
157 8 171 -6z m208 -88 c36 -18 51 -60 51 -141 0 -41 4 -64 13 -67 6 -3 -1
-10 -17 -16 -22 -9 -34 -8 -59 4 -17 9 -35 11 -41 6 -20 -15 -58 -20 -82 -11
-19 8 -24 17 -24 43 0 43 26 67 79 74 36 5 41 9 41 32 0 15 -5 32 -12 39 -15
15 -63 15 -91 1 l-22 -12 20 23 c37 41 94 51 144 25z m228 -5 c33 26 67 26 93
0 l21 -21 26 21 c34 26 64 25 90 -2 18 -19 22 -38 25 -121 l3 -97 -48 0 -47 0
6 69 c9 90 1 123 -29 119 -21 -3 -22 -8 -22 -96 l0 -92 -47 0 -47 0 6 69 c8
91 -1 123 -30 119 -21 -3 -22 -8 -22 -96 l0 -92 -52 0 -52 0 10 32 c12 42 12
104 0 145 -9 33 -9 33 37 47 44 12 47 12 50 -6 3 -18 4 -18 29 2z m415 -108
l3 -112 -50 0 -50 0 4 91 c2 59 -1 95 -8 102 -9 9 0 16 36 28 26 9 51 14 55
10 4 -3 8 -57 10 -119z m385 93 c19 -22 23 -37 23 -100 0 -58 4 -76 16 -83 14
-8 10 -11 -17 -21 -29 -10 -37 -9 -61 9 -17 13 -29 16 -33 9 -12 -19 -54 -29
-80 -19 -71 27 -24 120 60 120 33 0 42 23 21 55 -18 28 -72 35 -95 13 -10 -11
-11 -9 -5 5 20 52 130 60 171 12z m-2099 -67 c29 -29 7 -78 -35 -78 -21 0 -23
5 -23 45 0 40 2 45 23 45 13 0 28 -5 35 -12z m122 2 c0 -5 -9 -10 -20 -10 -27
0 -25 -20 3 -28 22 -6 22 -6 -3 -13 -24 -7 -24 -7 -2 -8 30 -1 28 -21 -3 -21
-23 0 -25 4 -25 45 0 41 2 45 25 45 14 0 25 -4 25 -10z m106 3 c-4 -5 -12 -9
-17 -9 -5 -1 -12 -2 -16 -3 -4 0 3 -8 15 -17 12 -8 22 -24 22 -35 0 -15 -7
-19 -31 -19 -17 0 -28 4 -24 10 3 5 12 7 20 3 21 -8 18 7 -6 33 -25 27 -18 44
18 44 15 0 23 -3 19 -7z m122 -5 c29 -29 7 -78 -35 -78 -21 0 -23 5 -23 45 0
40 2 45 23 45 13 0 28 -5 35 -12z m122 2 c0 -5 -7 -10 -15 -10 -21 0 -19 -30
3 -31 14 0 14 -2 -3 -9 -17 -7 -17 -9 -2 -9 27 -1 20 -21 -8 -21 -23 0 -25 4
-25 45 0 41 2 45 25 45 14 0 25 -4 25 -10z m1810 -35 c0 -25 -4 -45 -10 -45
-5 0 -10 13 -10 29 0 16 -3 36 -6 45 -4 11 -1 16 10 16 12 0 16 -10 16 -45z
m115 0 c0 -36 -2 -40 -25 -40 -20 0 -26 6 -28 28 -5 42 5 59 30 55 20 -3 23
-9 23 -43z m119 29 c6 -17 -22 -74 -37 -74 -5 0 -7 6 -4 13 2 6 -2 19 -10 28
-7 9 -11 24 -7 33 8 21 50 21 58 0z m117 -8 c20 -43 -18 -85 -49 -54 -25 25
-8 78 25 78 7 0 18 -11 24 -24z"/>
<path d="M2450 3431 c0 -5 7 -14 15 -21 13 -10 15 -9 15 9 0 12 -6 21 -15 21
-8 0 -15 -4 -15 -9z"/>
<path d="M2514 3425 c-11 -27 0 -36 24 -19 12 8 20 20 17 25 -9 14 -35 11 -41
-6z"/>
<path d="M2319 3390 c-89 -46 -89 -45 2 -136 61 -60 78 -72 70 -51 -6 16 -11
40 -11 55 0 35 33 88 60 97 22 7 22 7 -6 36 -34 36 -44 36 -115 -1z"/>
<path d="M2568 3394 l-26 -27 29 -24 c35 -30 51 -82 38 -125 l-9 -32 33 31
c17 17 52 48 76 71 26 23 42 46 39 54 -6 16 -118 78 -140 78 -7 0 -25 -12 -40
-26z"/>
<path d="M2439 3311 c-38 -39 -37 -72 6 -141 l35 -55 0 113 c0 61 -3 112 -6
112 -3 0 -19 -13 -35 -29z"/>
<path d="M2516 3333 c-8 -8 -8 -83 1 -151 l6 -54 28 46 c30 47 37 93 19 126
-12 23 -44 42 -54 33z"/>
<path d="M2190 3280 c-11 -16 -30 -50 -41 -76 l-21 -46 28 -29 27 -29 33 38
c30 34 36 37 88 37 l56 0 -67 68 c-37 37 -71 67 -75 67 -3 0 -16 -13 -28 -30z"/>
<path d="M2702 3237 l-73 -74 55 5 c53 4 57 3 93 -33 l37 -37 27 32 c27 32 27
32 10 70 -18 41 -63 110 -71 110 -3 0 -38 -33 -78 -73z"/>
<path d="M2245 3125 c-49 -48 -37 -55 93 -55 l117 0 -60 40 c-72 48 -114 52
-150 15z"/>
<path d="M2614 3108 l-49 -33 99 -3 c55 -1 103 1 108 6 5 5 -2 20 -16 35 -35
38 -79 36 -142 -5z"/>
<path d="M2857 3102 c-22 -24 -21 -32 3 -32 15 0 20 7 20 25 0 30 -2 30 -23 7z"/>
<path d="M2120 3090 c0 -14 7 -20 22 -20 20 0 21 1 3 20 -10 11 -20 20 -22 20
-1 0 -3 -9 -3 -20z"/>
<path d="M2120 3015 c0 -14 2 -25 4 -25 2 0 11 11 20 25 16 24 16 25 -4 25
-15 0 -20 -7 -20 -25z"/>
<path d="M2230 3020 c26 -48 86 -52 150 -10 l45 30 -103 0 c-99 0 -102 -1 -92
-20z"/>
<path d="M2610 3005 c30 -19 66 -35 80 -35 30 0 65 22 80 51 10 18 7 19 -102
19 l-113 -1 55 -34z"/>
<path d="M2840 3032 c0 -5 9 -17 20 -27 20 -18 20 -17 20 8 0 20 -5 27 -20 27
-11 0 -20 -4 -20 -8z"/>
<path d="M2162 2985 c-32 -35 -32 -36 -17 -73 19 -45 62 -112 73 -112 4 0 48
41 97 90 80 81 103 115 51 75 -24 -18 -93 -19 -125 -1 -13 7 -29 23 -36 35
-11 22 -12 22 -43 -14z"/>
<path d="M2774 2974 c-34 -37 -75 -44 -131 -24 -21 8 -8 -9 54 -72 80 -79 83
-82 98 -63 21 27 65 112 65 126 0 14 -39 69 -48 68 -4 0 -21 -16 -38 -35z"/>
<path d="M2448 2945 c-38 -62 -42 -87 -24 -123 14 -26 51 -51 61 -40 1 1 0 49
-4 106 l-6 102 -27 -45z"/>
<path d="M2520 2882 c0 -59 4 -102 10 -102 16 0 48 40 53 67 4 22 -29 102 -54
128 -5 5 -9 -31 -9 -93z"/>
<path d="M2316 2851 l-78 -78 29 -20 c37 -27 109 -63 125 -63 6 0 24 12 39 26
l27 26 -34 30 c-38 34 -52 82 -36 128 6 16 10 30 9 30 -1 0 -38 -35 -81 -79z"/>
<path d="M2600 2928 c0 -4 5 -19 10 -33 15 -40 -4 -99 -41 -128 l-30 -24 36
-28 c37 -27 37 -28 74 -11 52 25 101 59 101 71 0 6 -34 44 -75 85 -41 41 -75
72 -75 68z"/>
<path d="M2510 2701 c0 -24 15 -35 37 -27 14 6 14 9 -2 26 -23 25 -35 25 -35
1z"/>
<path d="M2455 2697 c-17 -13 -17 -14 4 -20 16 -4 21 -1 21 14 0 23 -1 23 -25
6z"/>
<path d="M2741 2281 c-6 -11 -11 -56 -11 -100 0 -60 4 -84 16 -96 15 -15 19
-15 32 -1 20 20 28 152 10 185 -17 32 -34 37 -47 12z"/>
<path d="M3700 2281 c-19 -37 -12 -51 25 -51 25 0 35 4 35 16 0 24 -19 54 -35
54 -8 0 -19 -9 -25 -19z"/>
<path d="M2140 1756 c-15 -20 -9 -61 10 -61 10 0 16 12 18 38 3 39 -7 47 -28
23z"/>
<path d="M3144 1756 c-9 -25 0 -61 16 -61 10 0 16 12 18 38 2 28 0 37 -13 37
-8 0 -18 -6 -21 -14z"/>
<path d="M1090 1765 c0 -18 5 -25 20 -25 15 0 20 7 20 25 0 18 -5 25 -20 25
-15 0 -20 -7 -20 -25z"/>
<path d="M1450 1765 c0 -16 6 -25 15 -25 9 0 15 9 15 25 0 16 -6 25 -15 25 -9
0 -15 -9 -15 -25z"/>
<path d="M3500 1790 c0 -5 5 -10 11 -10 5 0 7 5 4 10 -3 6 -8 10 -11 10 -2 0
-4 -4 -4 -10z"/>
<path d="M3495 1751 c-6 -11 9 -23 19 -14 9 9 7 23 -3 23 -6 0 -12 -4 -16 -9z"/>
<path d="M3615 1790 c-4 -6 -3 -16 3 -22 6 -6 12 -6 17 2 4 6 3 16 -3 22 -6 6
-12 6 -17 -2z"/>
<path d="M3734 1787 c-7 -20 -2 -47 11 -50 14 -3 19 43 6 56 -7 7 -12 6 -17
-6z"/>
</g>
</svg>
